<svg width="50" height="122" viewBox="0 0 50 122" fill="none" xmlns="http://www.w3.org/2000/svg">
<path opacity="0.4" d="M64.4589 119.647C74.7554 118.542 76.6772 105.736 76.1917 103.887C75.7062 102.037 78.0528 101.816 78.0528 101.816C78.0528 101.816 82.4222 106.562 90.4632 100.374C101.306 92.0225 104.421 81.9614 104.128 69.7135C103.845 57.5238 95.3586 50.9985 95.3586 50.9985C95.3586 50.9985 98.1907 47.7534 97.159 35.7032C94.8327 8.79974 66.4818 2.65835 66.4818 2.65835C58.0969 14.9179 53.8084 4.47285 49.2265 1.37889C44.6447 -1.71507 12.6222 14.9528 13.7652 21.8269C18.2155 48.6257 3.24609 43.0426 3.24609 43.0426C-4.31954 70.0159 10.9938 94.3488 10.9938 94.3488C10.9938 94.3488 26.8836 97.9313 25.6598 102.247C24.2134 107.341 25.6092 109.714 25.6092 109.714C43.9467 124.858 54.1118 120.775 64.4589 119.647ZM45.9191 70.865C45.9191 70.865 24.355 81.9265 25.7002 59.4197C27.0354 36.9129 45.5246 49.6726 45.5246 49.6726C45.5246 49.6726 29.3313 29.492 54.0916 29.1896C78.8417 28.8756 60.5851 49.9517 60.5851 49.9517C60.5851 49.9517 86.7411 40.3442 79.9341 63.921C73.127 87.4979 60.2007 70.1322 60.2007 70.1322C60.2007 70.1322 74.3104 95.0467 50.8549 91.2316C27.4096 87.4165 45.9191 70.865 45.9191 70.865Z" stroke="#C7931D" stroke-miterlimit="10"/>
</svg>
