<svg width="35" height="35" viewBox="0 0 35 35" fill="none" xmlns="http://www.w3.org/2000/svg">
<path d="M28.2822 5.03166H32.203C33.1832 5.03166 34 5.77826 34 6.67419V32.3574C34 33.2534 33.1832 34 32.203 34H2.79703C1.81683 34 1 33.2534 1 32.3574V6.52487C1 5.62894 1.81683 4.88234 2.79703 4.88234H6.88119" stroke="#626262" stroke-linecap="round" stroke-linejoin="round"/>
<path d="M11.9456 5.03168H23.0545" stroke="#626262" stroke-linecap="round" stroke-linejoin="round"/>
<path fill-rule="evenodd" clip-rule="evenodd" d="M9.49505 9.36199V9.36199C8.35149 9.36199 7.37129 8.46606 7.37129 7.42081V2.94118C7.37129 1.89593 8.35149 1 9.49505 1V1C10.6386 1 11.6188 1.89593 11.6188 2.94118V7.42081C11.6188 8.46606 10.802 9.36199 9.49505 9.36199Z" stroke="#626262" stroke-linecap="round" stroke-linejoin="round"/>
<path fill-rule="evenodd" clip-rule="evenodd" d="M25.5049 9.36199V9.36199C24.3613 9.36199 23.3811 8.46606 23.3811 7.42081V2.94118C23.3811 1.89593 24.3613 1 25.5049 1V1C26.6485 1 27.6287 1.89593 27.6287 2.94118V7.42081C27.6287 8.46606 26.6485 9.36199 25.5049 9.36199Z" stroke="#626262" stroke-linecap="round" stroke-linejoin="round"/>
<path d="M1 13.8416H34" stroke="#626262" stroke-linecap="round" stroke-linejoin="round"/>
<path d="M7.69805 19.2172H6.55449C6.39112 19.2172 6.22775 19.0679 6.22775 18.9185V17.8733C6.22775 17.724 6.39112 17.5746 6.55449 17.5746H7.69805C7.86142 17.5746 8.02478 17.724 8.02478 17.8733V18.9185C7.86142 19.0679 7.86142 19.2172 7.69805 19.2172Z" fill="#626262"/>
<path d="M11.7823 19.2172H10.6388C10.4754 19.2172 10.312 19.0679 10.312 18.9185V17.8733C10.312 17.724 10.4754 17.5746 10.6388 17.5746H11.7823C11.9457 17.5746 12.1091 17.724 12.1091 17.8733V18.9185C12.1091 19.0679 11.9457 19.2172 11.7823 19.2172Z" fill="#626262"/>
<path d="M16.0299 19.2172H14.8863C14.7229 19.2172 14.5596 19.0679 14.5596 18.9185V17.8733C14.5596 17.724 14.7229 17.5746 14.8863 17.5746H16.0299C16.1932 17.5746 16.3566 17.724 16.3566 17.8733V18.9185C16.1932 19.0679 16.1932 19.2172 16.0299 19.2172Z" fill="#626262"/>
<path d="M20.1139 19.2172H18.9703C18.807 19.2172 18.6436 19.0679 18.6436 18.9185V17.8733C18.6436 17.724 18.807 17.5746 18.9703 17.5746H20.1139C20.2773 17.5746 20.4406 17.724 20.4406 17.8733V18.9185C20.4406 19.0679 20.2773 19.2172 20.1139 19.2172Z" fill="#626262"/>
<path d="M24.3614 19.2172H23.2179C23.0545 19.2172 22.8911 19.0679 22.8911 18.9185V17.8733C22.8911 17.724 23.0545 17.5746 23.2179 17.5746H24.3614C24.5248 17.5746 24.6882 17.724 24.6882 17.8733V18.9185C24.5248 19.0679 24.3614 19.2172 24.3614 19.2172Z" fill="#626262"/>
<path d="M28.4456 19.2172H27.3021C27.1387 19.2172 26.9753 19.0679 26.9753 18.9185V17.8733C26.9753 17.724 27.1387 17.5746 27.3021 17.5746H28.4456C28.609 17.5746 28.7724 17.724 28.7724 17.8733V18.9185C28.7724 19.0679 28.609 19.2172 28.4456 19.2172Z" fill="#626262"/>
<path d="M7.69805 24.2941H6.55449C6.39112 24.2941 6.22775 24.1448 6.22775 23.9955V22.9502C6.22775 22.8009 6.39112 22.6516 6.55449 22.6516H7.69805C7.86142 22.6516 8.02478 22.8009 8.02478 22.9502V23.9955C7.86142 24.2941 7.86142 24.2941 7.69805 24.2941Z" fill="#626262"/>
<path d="M11.7823 24.2941H10.6388C10.4754 24.2941 10.312 24.1448 10.312 23.9955V22.9502C10.312 22.8009 10.4754 22.6516 10.6388 22.6516H11.7823C11.9457 22.6516 12.1091 22.8009 12.1091 22.9502V23.9955C12.1091 24.2941 11.9457 24.2941 11.7823 24.2941Z" fill="#626262"/>
<path d="M16.0299 24.2941H14.8863C14.7229 24.2941 14.5596 24.1448 14.5596 23.9955V22.9502C14.5596 22.8009 14.7229 22.6516 14.8863 22.6516H16.0299C16.1932 22.6516 16.3566 22.8009 16.3566 22.9502V23.9955C16.1932 24.2941 16.1932 24.2941 16.0299 24.2941Z" fill="#626262"/>
<path d="M20.1139 24.2941H18.9703C18.807 24.2941 18.6436 24.1448 18.6436 23.9955V22.9502C18.6436 22.8009 18.807 22.6516 18.9703 22.6516H20.1139C20.2773 22.6516 20.4406 22.8009 20.4406 22.9502V23.9955C20.4406 24.2941 20.2773 24.2941 20.1139 24.2941Z" fill="#626262"/>
<path d="M24.3614 24.2941H23.2179C23.0545 24.2941 22.8911 24.1448 22.8911 23.9955V22.9502C22.8911 22.8009 23.0545 22.6516 23.2179 22.6516H24.3614C24.5248 22.6516 24.6882 22.8009 24.6882 22.9502V23.9955C24.5248 24.2941 24.3614 24.2941 24.3614 24.2941Z" fill="#626262"/>
<path d="M28.4456 24.2941H27.3021C27.1387 24.2941 26.9753 24.1448 26.9753 23.9955V22.9502C26.9753 22.8009 27.1387 22.6516 27.3021 22.6516H28.4456C28.609 22.6516 28.7724 22.8009 28.7724 22.9502V23.9955C28.7724 24.2941 28.609 24.2941 28.4456 24.2941Z" fill="#626262"/>
<path d="M7.69805 29.5204H6.55449C6.39112 29.5204 6.22775 29.371 6.22775 29.2217V28.1765C6.22775 28.0272 6.39112 27.8778 6.55449 27.8778H7.69805C7.86142 27.8778 8.02478 28.0272 8.02478 28.1765V29.2217C7.86142 29.371 7.86142 29.5204 7.69805 29.5204Z" fill="#626262"/>
<path d="M11.7823 29.5204H10.6388C10.4754 29.5204 10.312 29.3711 10.312 29.2217V28.1765C10.312 28.0272 10.4754 27.8778 10.6388 27.8778H11.7823C11.9457 27.8778 12.1091 28.0272 12.1091 28.1765V29.2217C12.1091 29.3711 11.9457 29.5204 11.7823 29.5204Z" fill="#626262"/>
<path d="M16.0299 29.5204H14.8863C14.7229 29.5204 14.5596 29.3711 14.5596 29.2217V28.1765C14.5596 28.0272 14.7229 27.8778 14.8863 27.8778H16.0299C16.1932 27.8778 16.3566 28.0272 16.3566 28.1765V29.2217C16.1932 29.3711 16.1932 29.5204 16.0299 29.5204Z" fill="#626262"/>
<path d="M20.1139 29.5204H18.9703C18.807 29.5204 18.6436 29.3711 18.6436 29.2217V28.1765C18.6436 28.0272 18.807 27.8778 18.9703 27.8778H20.1139C20.2773 27.8778 20.4406 28.0272 20.4406 28.1765V29.2217C20.4406 29.3711 20.2773 29.5204 20.1139 29.5204Z" fill="#626262"/>
<path d="M24.3614 29.5204H23.2179C23.0545 29.5204 22.8911 29.3711 22.8911 29.2217V28.1765C22.8911 28.0272 23.0545 27.8778 23.2179 27.8778H24.3614C24.5248 27.8778 24.6882 28.0272 24.6882 28.1765V29.2217C24.5248 29.3711 24.3614 29.5204 24.3614 29.5204Z" fill="#626262"/>
<path d="M28.4456 29.5204H27.3021C27.1387 29.5204 26.9753 29.3711 26.9753 29.2217V28.1765C26.9753 28.0272 27.1387 27.8778 27.3021 27.8778H28.4456C28.609 27.8778 28.7724 28.0272 28.7724 28.1765V29.2217C28.7724 29.3711 28.609 29.5204 28.4456 29.5204Z" fill="#626262"/>
</svg>
