<svg width="61" height="202" viewBox="0 0 61 202" fill="none" xmlns="http://www.w3.org/2000/svg">
<path opacity="0.4" d="M-13.8098 200.554C-11.6453 199.755 -9.83164 198.053 -8.70703 195.77C-7.56746 193.469 -7.26667 190.849 -7.85247 188.395C-8.09605 187.383 -8.4809 186.468 -8.97189 185.658C-7.71998 185.001 -6.39344 183.953 -5.03013 182.378C-5.03013 182.378 -7.10719 171.315 -22.2122 172.003C-22.2122 172.003 -32.1397 155.008 -32.676 148.486C-33.0291 144.246 -17.3478 149.533 -17.3478 149.533C-17.3478 149.533 -9.80716 165.178 -0.0727418 162.642C-0.0727418 162.642 1.26464 160.856 1.40374 158.575C1.67147 158.506 1.94137 158.424 2.2076 158.328C4.37901 157.523 6.19158 155.828 7.31728 153.538C8.451 151.236 8.75069 148.623 8.16381 146.176C7.22367 142.246 4.20118 139.72 0.788733 139.588C0.779294 137.86 0.544669 135.861 -0.0138783 133.535C-0.0138783 133.535 -8.63113 134.802 -16.1685 144.936C-16.1685 144.936 -47.4864 147.672 -67.3442 116.229C-67.3442 116.229 -39.8877 113.219 -24.8962 98.943C-24.8962 98.943 -28.035 131.429 5.00145 119.208C5.00145 119.208 -2.70897 111.359 -2.36962 98.7085C-2.15973 90.848 -17.695 92.5432 -17.695 92.5432C-17.695 92.5432 -4.77032 83.5205 -4.13866 79.0242C-4.13866 79.0242 10.6234 78.4635 10.9719 79.9393C10.9719 79.9393 9.26213 100.65 24.6678 99.9116C30.9568 99.6081 34.745 89.6914 34.745 89.6914C34.745 89.6914 35.1885 87.1872 44.6233 82.201C44.6233 82.201 30.7177 73.7363 21.9622 70.7651C10.3985 66.8365 9.5736 74.9198 9.5736 74.9198C9.5736 74.9198 -2.08409 74.9643 -2.19744 74.4796C-2.19744 74.4796 7.6855 61.4502 22.6596 57.4085C22.6596 57.4085 22.5406 70.0263 34.7365 58.6971C46.9185 47.3799 58.926 47.2019 59.7852 48.8072C59.7852 48.8072 50.5801 34.9392 38.2889 37.891C26.002 40.8158 25.2931 50.5583 25.2931 50.5583C25.2931 50.5583 16.7417 56.0686 5.19346 61.7225C5.19346 61.7225 13.3474 49.0107 12.9373 40.9579C12.9373 40.9579 37.118 42.8825 24.4884 2.37724C24.4884 2.37724 22.8405 10.3796 8.16658 21.4097C-0.756651 28.1212 10.3478 40.4231 10.3478 40.4231C10.3478 40.4231 6.16437 60.621 -1.00782 67.1006C-1.00782 67.1006 3.30214 43.8801 -8.02701 39.7545C-18.9678 35.7768 -33.4413 39.4148 -34.8591 39.3936C-33.847 39.5616 -25.6948 41.2306 -22.7107 53.712C-19.5318 67.0271 -5.07843 63.1792 -5.07843 63.1792C-5.07843 63.1792 0.924972 66.0707 -9.61782 78.7093C-20.1654 91.3402 -20.0152 89.5849 -22.5661 92.0114C-25.1181 94.4447 -22.5967 89.8937 -22.5967 89.8937C-22.5967 89.8937 -11.4845 77.503 -26.5148 70.3543C-37.9218 64.9267 -34.1582 50.6966 -34.1582 50.6966C-34.1582 50.6966 -47.8107 60.6457 -44.9736 79.6281C-42.1424 98.6098 -29.8844 90.3556 -29.8844 90.3556C-29.8844 90.3556 -22.4047 95.4725 -32.511 99.2098C-42.6241 102.953 -42.3382 105.712 -76.4665 110.185L-78.9298 111.096C-78.9298 111.096 -69.3756 115.975 -70.7383 126.108C-72.3063 137.782 -84.9569 138.656 -65.726 160.94C-65.726 160.94 -58.144 141.743 -67.0719 128.008C-70.0983 123.347 -65.2437 126.253 -65.2437 126.253C-65.2437 126.253 -59.3464 129.918 -49.1971 141.845C-40.7099 151.812 -47.7679 165.732 -47.7679 165.732C-47.7679 165.732 -54.1407 163.283 -60.6675 170.02C-62.0381 170.523 -58.0663 173.423 -56.944 174.206C-57.5151 174.863 -58.0174 175.612 -58.4242 176.436C-59.2822 178.174 -59.6627 180.099 -59.5474 181.986C-59.5084 182.599 -59.4204 183.205 -59.2777 183.804C-58.0719 188.832 -53.4482 191.577 -48.9658 189.916C-46.9792 189.183 -45.2997 187.685 -44.1669 185.686C-43.1785 186.783 -41.8208 187.812 -39.9615 188.693C-39.9615 188.693 -32.177 174.412 -43.9259 165.756C-43.9259 165.756 -39.8517 158.598 -41.1471 148.432C-42.4403 138.253 -24.1692 174.971 -26.2639 175.745C-28.3586 176.518 -32.7409 184.741 -28.3231 198.447C-28.3231 198.447 -26.0029 197.682 -23.5921 196.018C-21.8863 200.014 -17.7958 202.025 -13.8098 200.554ZM-55.6953 175.096C-54.3944 175.772 -51.5837 176.454 -46.3874 174.735C-46.1769 174.949 -45.9745 175.176 -45.787 175.422C-46.4122 177.198 -47.2899 180.957 -45.1308 184.398C-46.0573 186.265 -47.5408 187.659 -49.3182 188.315C-53.0263 189.691 -56.8479 187.419 -57.8458 183.254C-58.3282 181.235 -58.0837 179.078 -57.147 177.184C-56.7631 176.392 -56.2636 175.698 -55.6953 175.096ZM-66.3456 138.036C-65.048 139.589 -65.5062 142.519 -67.3704 144.574C-69.2346 146.628 -71.801 147.029 -73.1044 145.475C-74.402 143.923 -73.9439 140.992 -72.0797 138.938C-70.2154 136.884 -67.6491 136.483 -66.3456 138.036ZM-34.0438 86.243C-35.8426 84.0924 -35.6089 80.4762 -33.5269 78.1812C-31.4391 75.887 -28.2913 75.7702 -26.4924 77.9208C-24.6877 80.0721 -24.9204 83.6816 -27.0082 85.9758C-29.0913 88.2775 -32.2449 88.3935 -34.0438 86.243ZM-20.9857 45.2293C-21.972 46.3149 -23.4221 46.4207 -24.2185 45.4661C-25.0148 44.5115 -24.8681 42.8524 -23.876 41.7675C-22.8886 40.6751 -21.4385 40.5693 -20.6363 41.5247C-19.8399 42.4793 -19.9936 44.1444 -20.9857 45.2293ZM-16.997 49.9964C-17.8988 48.9173 -17.4708 46.7703 -16.0421 45.1974C-14.6145 43.6312 -12.7289 43.2305 -11.8318 44.302C-10.93 45.3811 -11.358 47.5281 -12.7867 49.101C-14.2155 50.674 -16.1011 51.0746 -16.997 49.9964ZM-9.48508 56.6993C-10.7827 55.1467 -10.5919 52.5057 -9.05486 50.8157C-7.51781 49.1258 -5.21297 49.0153 -3.91538 50.5679C-2.61887 52.1272 -2.80854 54.7615 -4.34559 56.4514C-5.88373 58.1481 -8.18748 58.2519 -9.48508 56.6993ZM15.7448 29.3371C14.0467 27.3034 14.3599 23.7874 16.4418 21.4925C18.5297 19.1982 21.597 18.988 23.2951 21.0216C24.9933 23.0553 24.6812 26.5645 22.5923 28.8654C20.5103 31.1604 17.443 31.3707 15.7448 29.3371ZM31.879 52.7599C30.4818 51.0837 30.6784 48.2569 32.3249 46.4432C33.9714 44.6296 36.4443 44.5136 37.8404 46.1966C39.2376 47.8728 39.0409 50.6996 37.3945 52.5133C35.7491 54.3201 33.2762 54.4361 31.879 52.7599ZM29.3687 81.7366C30.7728 83.4069 30.6626 86.1415 29.1245 87.8381C27.5874 89.5281 25.202 89.5451 23.8048 87.8688C22.4077 86.1926 22.5179 83.458 24.0549 81.7681C25.5872 80.0707 27.9657 80.0596 29.3687 81.7366ZM-7.06456 104.375C-5.26682 106.532 -5.49252 110.136 -7.58143 112.437C-9.66925 114.731 -12.8171 114.848 -14.6159 112.697C-16.4148 110.547 -16.188 106.937 -14.0932 104.636C-12.0112 102.341 -8.8634 102.225 -7.06456 104.375ZM0.731254 141.287C3.52033 141.433 5.9746 143.518 6.74839 146.736C6.8665 147.228 6.94042 147.735 6.97341 148.237C7.06954 149.796 6.75717 151.372 6.05648 152.799C5.13472 154.673 3.63848 156.072 1.86002 156.735C1.66939 156.807 1.48202 156.858 1.2888 156.909C0.772029 154.658 -1.28231 152.239 -6.83408 150.664C-6.84963 150.537 -6.8641 150.404 -6.87381 150.279C-4.78721 149.891 0.0864992 148.247 0.731254 141.287ZM-22.3147 195.053C-19.5834 192.768 -17.2593 189.262 -18.7361 184.322C-18.6317 184.266 -18.5262 184.204 -18.4218 184.149C-17.2477 185.243 -14.27 187.453 -10.4636 186.283C-9.93464 187.043 -9.52316 187.94 -9.28434 188.946C-9.16623 189.438 -9.09123 189.938 -9.06409 190.439C-8.96796 191.999 -9.28142 193.581 -9.99013 195.021C-10.9177 196.895 -12.4081 198.294 -14.1855 198.951C-17.5124 200.183 -20.9373 198.454 -22.3147 195.053Z" stroke="#C7931D" stroke-miterlimit="10"/>
</svg>
